<?xml version="1.0" encoding="UTF-8"?>
<!DOCTYPE svg PUBLIC "-//W3C//DTD SVG 1.1//EN" "http://www.w3.org/Graphics/SVG/1.1/DTD/svg11.dtd">
<svg version="1.1" xmlns="http://www.w3.org/2000/svg" xmlns:xlink="http://www.w3.org/1999/xlink" x="0" y="0" width="10" height="10" viewBox="0, 0, 10, 10">
  <g id="Layer_1">
    <path d="M5.5,9.969 C3.032,9.969 1.031,7.968 1.031,5.5 C1.031,3.032 3.032,1.031 5.5,1.031 C7.968,1.031 9.969,3.032 9.969,5.5 C9.969,7.968 7.968,9.969 5.5,9.969 z" fill="#775211"/>
    <g>
      <path d="M5.5,9.969 C3.032,9.969 1.031,7.968 1.031,5.5 C1.031,3.032 3.032,1.031 5.5,1.031 C7.968,1.031 9.969,3.032 9.969,5.5 C9.969,7.968 7.968,9.969 5.5,9.969 z" fill="#775211"/>
      <path d="M5.5,9.969 C3.032,9.969 1.031,7.968 1.031,5.5 C1.031,3.032 3.032,1.031 5.5,1.031 C7.968,1.031 9.969,3.032 9.969,5.5 C9.969,7.968 7.968,9.969 5.5,9.969 z" fill-opacity="0" stroke="#000000" stroke-width="1"/>
    </g>
  </g>
</svg>
