<?xml version="1.0" encoding="UTF-8" standalone="no"?>
<!DOCTYPE svg PUBLIC "-//W3C//DTD SVG 1.1//EN" "http://www.w3.org/Graphics/SVG/1.1/DTD/svg11.dtd">
<svg width="100%" height="100%" viewBox="0 0 100 70" version="1.1" xmlns="http://www.w3.org/2000/svg" xmlns:xlink="http://www.w3.org/1999/xlink" xml:space="preserve" xmlns:serif="http://www.serif.com/" style="fill-rule:evenodd;clip-rule:evenodd;stroke-linecap:round;stroke-linejoin:round;stroke-miterlimit:1.5;">
    <g transform="matrix(0.89149,0,0,0.632698,5.36502,3.43722)">
        <rect x="3.834" y="3.653" width="92.467" height="92.467" style="fill:white;stroke:black;stroke-width:4.04px;"/>
    </g>
    <g transform="matrix(1,0,0,1,0,-7.3509)">
        <path d="M50,13.099L50,71.603" style="fill:none;stroke:black;stroke-width:2.08px;"/>
    </g>
    <g transform="matrix(1.34462,0,0,1.34462,-15.4305,-19.3279)">
        <path d="M57.383,39.43C57.383,38.893 56.947,38.457 56.41,38.457L54.184,38.457C53.646,38.457 53.21,38.893 53.21,39.43L53.21,41.377C53.21,41.915 53.646,42.351 54.184,42.351L56.41,42.351C56.947,42.351 57.383,41.915 57.383,41.377L57.383,39.43Z" style="stroke:white;stroke-width:0.74px;"/>
    </g>
</svg>
