<?xml version='1.0' encoding='utf-8'?>
<svg xmlns="http://www.w3.org/2000/svg" width="35.0px" height="35.0px" viewBox="0 0 85.039 85.039">
  <defs>
    <style>
      .c {
        fill: none;
      }

      .c, .d {
        stroke: #000;
        stroke-linecap: round;
        stroke-linejoin: round;
        stroke-width: 5px;
      }

      .e {
        mix-blend-mode: multiply;
        opacity: 1;
      }

      .f {
        isolation: isolate;
      }

      .d {
        fill: #fff;
      }
    </style>
  </defs>
  <g class="f">
    <g id="b" data-name="Layer 1" class="e">
      <g>
        <polygon class="d" points="52.318 71.159 42.792 8.975 42.592 8.975 33.018 71.159 52.318 71.159" />
        <path class="c" d="M72.592,4.075c6.1,10.6,6.4,24.2-.1,35.6" />
        <path class="c" d="M62.492,9.275c4.3,7.5,4.5,17.1-.1,25.2" />
        <path class="c" d="M12.792,4.075c-6.1,10.6-6.4,24.2.1,35.6" />
        <path class="c" d="M22.892,9.275c-4.3,7.5-4.5,17.1.1,25.2" />
        <path class="d" d="M42.718,80.759c5.3,0,9.6-4.3,9.6-9.6,0-5.4-4.3-9.7-9.6-9.7-5.4,0-9.7,4.3-9.7,9.7,0,5.3,4.3,9.6,9.7,9.6Z" />
        <line class="c" x1="52.318" y1="71.059" x2="82.018" y2="71.059" />
        <line class="c" x1="3.018" y1="71.159" x2="33.018" y2="71.159" />
      </g>
    </g>
  </g>
</svg>