<?xml version="1.0" encoding="UTF-8" standalone="no"?>
<!DOCTYPE svg PUBLIC "-//W3C//DTD SVG 1.1//EN" "http://www.w3.org/Graphics/SVG/1.1/DTD/svg11.dtd">
<svg width="100%" height="100%" viewBox="0 0 25 25" version="1.1" xmlns="http://www.w3.org/2000/svg" xmlns:xlink="http://www.w3.org/1999/xlink" xml:space="preserve" xmlns:serif="http://www.serif.com/" style="fill-rule:evenodd;clip-rule:evenodd;">
    <g transform="matrix(1,0,0,1,0.5,0.313814)">
        <g id="Layer_1">
            <g>
                <g transform="matrix(1,0,0,1,-0.5,-0.284314)">
                    <path d="M12.5,23.529C6.377,23.529 1.413,18.578 1.413,12.471C1.413,6.363 6.377,1.412 12.5,1.412C18.623,1.412 23.587,6.363 23.587,12.471C23.587,18.578 18.623,23.529 12.5,23.529Z" style="fill:white;fill-rule:nonzero;"/>
                    <path d="M12.5,23.529C6.377,23.529 1.413,18.578 1.413,12.471C1.413,6.363 6.377,1.412 12.5,1.412C18.623,1.412 23.587,6.363 23.587,12.471C23.587,18.578 18.623,23.529 12.5,23.529Z" style="fill-opacity:0;fill-rule:nonzero;stroke:black;stroke-width:1.8px;"/>
                </g>
                <path d="M4.078,20.886L20.848,4.056" style="fill:none;fill-rule:nonzero;stroke:black;stroke-width:0.72px;"/>
            </g>
        </g>
    </g>
</svg>
