<?xml version="1.0" encoding="UTF-8"?>
<svg id="a" data-name="Layer 1" xmlns="http://www.w3.org/2000/svg" width="35px" height="35px" viewBox="0 0 85.0394 85.0394">
  <defs>
    <style>
      .c {
        fill: none;
      }

      .c, .d {
        stroke: #000;
        stroke-linecap: round;
        stroke-linejoin: round;
        stroke-width: 5px;
      }

      .d {
        fill: #fff;
      }
    </style>
  </defs>
  <path class="d" d="M42.46756,82.29021c21.8,0,39.5-17.6,39.5-39.5,0-21.8-17.7-39.5-39.5-39.5C20.56756,3.29021,2.96756,20.99021,2.96756,42.79021c0,21.9,17.6,39.5,39.5,39.5Z"/>
  <line class="c" x1="38.36756" y1="62.09021" x2="52.66756" y2="62.09021"/>
  <line class="c" x1="38.36756" y1="42.79021" x2="42.46756" y2="42.79021"/>
  <line class="c" x1="38.36756" y1="23.49021" x2="52.66756" y2="23.49021"/>
  <path class="c" d="M38.46756,42.79021c-5.4,0-9.7,4.3-9.7,9.7,0,5.3,4.3,9.6,9.7,9.6"/>
  <path class="c" d="M38.46756,23.49021c-5.4,0-9.7,4.3-9.7,9.7,0,5.3,4.3,9.6,9.7,9.6"/>
  <line class="c" x1="42.46756" y1="11.79414" x2="42.46756" y2="73.78627"/>
</svg>
