<?xml version="1.0" encoding="UTF-8"?>
<svg id="a" data-name="Layer 1" xmlns="http://www.w3.org/2000/svg" width="35px" height="35px" viewBox="0 0 85.0394 85.0394">
  <defs>
    <style>
      .c {
        fill: none;
      }

      .c, .d {
        stroke: #000;
        stroke-linecap: round;
        stroke-linejoin: round;
        stroke-width: 5px;
      }

      .d {
        fill: #fff;
      }
    </style>
  </defs>
  <path class="d" d="M42.46756,82.10003c21.8,0,39.5-17.6,39.5-39.5,0-21.8-17.7-39.5-39.5-39.5C20.56756,3.10003,2.96756,20.80003,2.96756,42.60003c0,21.9,17.6,39.5,39.5,39.5Z"/>
  <path class="c" d="M42.45958,69.05487c9.07575,0,16.55483-7.47909,16.55483-16.63887,0-9.07575-7.47909-16.4708-16.55483-16.4708-9.15978,0-16.63887,7.39505-16.63887,16.4708,0,9.15978,7.47909,16.63887,16.63887,16.63887Z"/>
  <path class="c" d="M42.45958,49.35487c9.07575,0,16.55483-7.39505,16.55483-16.55483,0-9.07575-7.47909-16.55483-16.55483-16.55483-9.15978,0-16.63887,7.47909-16.63887,16.55483,0,9.15978,7.47909,16.55483,16.63887,16.55483Z"/>
</svg>
