<?xml version='1.0' encoding='utf-8'?>
<svg xmlns="http://www.w3.org/2000/svg" width="35.0px" height="35.0px" viewBox="0 0 10 10" version="1.1" xml:space="preserve" style="fill-rule:evenodd;clip-rule:evenodd;">
    <g transform="matrix(1,0,0,1,-0.5,-0.5)">
        <g id="Layer_1">
            <g>
                <path d="M5.5,9.969C3.032,9.969 1.031,7.968 1.031,5.5C1.031,3.032 3.032,1.031 5.5,1.031C7.968,1.031 9.969,3.032 9.969,5.5C9.969,7.968 7.968,9.969 5.5,9.969Z" style="fill:rgb(119,82,17);fill-rule:nonzero;" />
                <path d="M5.5,9.969C3.032,9.969 1.031,7.968 1.031,5.5C1.031,3.032 3.032,1.031 5.5,1.031C7.968,1.031 9.969,3.032 9.969,5.5C9.969,7.968 7.968,9.969 5.5,9.969Z" style="fill-opacity:0;fill-rule:nonzero;stroke:rgb(46,46,46);stroke-width:1px;" />
            </g>
        </g>
    </g>
</svg>