<?xml version="1.0" encoding="UTF-8" standalone="no"?>
<!DOCTYPE svg PUBLIC "-//W3C//DTD SVG 1.1//EN" "http://www.w3.org/Graphics/SVG/1.1/DTD/svg11.dtd">
<svg width="100%" height="100%" viewBox="0 0 50 60" version="1.1" xmlns="http://www.w3.org/2000/svg" xmlns:xlink="http://www.w3.org/1999/xlink" xml:space="preserve" xmlns:serif="http://www.serif.com/" style="fill-rule:evenodd;clip-rule:evenodd;stroke-linecap:round;stroke-linejoin:round;stroke-miterlimit:2;">
    <g transform="matrix(0.893147,0,0,0.951135,2.67136,1.46599)">
        <g id="Layer_1">
            <path d="M16.263,17.435C19.73,17.435 22.546,14.619 22.546,11.152C22.546,7.684 19.73,4.869 16.263,4.869M16.263,42.565C19.73,42.565 22.546,39.75 22.546,36.283C22.546,32.815 19.73,30 16.263,30M16.263,55.131C19.73,55.131 22.546,52.316 22.546,48.848C22.546,45.381 19.73,42.565 16.263,42.565M16.263,30C19.73,30 22.546,27.185 22.546,23.717C22.546,20.25 19.73,17.435 16.263,17.435M16.263,4.869L3.419,4.869M16.263,55.131L3.419,55.131M33.627,42.567C30.16,42.567 27.345,39.751 27.345,36.284C27.345,32.816 30.16,30.001 33.627,30.001M33.627,30.001C30.16,30.001 27.345,27.186 27.345,23.719C27.345,20.251 30.16,17.436 33.627,17.436M46.581,17.433L33.737,17.433M46.581,42.567L33.737,42.567" style="fill:none;stroke:white;stroke-width:9.76px;"/>
            <path d="M16.263,17.435C19.73,17.435 22.546,14.619 22.546,11.152C22.546,7.684 19.73,4.869 16.263,4.869M16.263,42.565C19.73,42.565 22.546,39.75 22.546,36.283C22.546,32.815 19.73,30 16.263,30M16.263,55.131C19.73,55.131 22.546,52.316 22.546,48.848C22.546,45.381 19.73,42.565 16.263,42.565M16.263,30C19.73,30 22.546,27.185 22.546,23.717C22.546,20.25 19.73,17.435 16.263,17.435M16.263,4.869L3.419,4.869M16.263,55.131L3.419,55.131M33.627,42.567C30.16,42.567 27.345,39.751 27.345,36.284C27.345,32.816 30.16,30.001 33.627,30.001M33.627,30.001C30.16,30.001 27.345,27.186 27.345,23.719C27.345,20.251 30.16,17.436 33.627,17.436M46.581,17.433L33.737,17.433M46.581,42.567L33.737,42.567" style="fill:none;stroke:rgb(59,59,59);stroke-width:3.5px;stroke-miterlimit:1.5;"/>
        </g>
    </g>
</svg>
