<?xml version="1.0" encoding="UTF-8"?>
<svg id="a" data-name="Layer 1" xmlns="http://www.w3.org/2000/svg" width="35px" height="35px" viewBox="0 0 85.0394 85.0394">
  <defs>
    <style>
      .c {
        fill: none;
      }

      .c, .d {
        stroke: #000;
        stroke-linecap: round;
        stroke-linejoin: round;
        stroke-width: 5px;
      }

      .d {
        fill: #fff;
      }
    </style>
  </defs>
  <path class="d" d="M42.50705,82.29021c21.8,0,39.5-17.6,39.5-39.5,0-21.8-17.7-39.5-39.5-39.5C20.60705,3.29021,3.00705,20.99021,3.00705,42.79021c0,21.9,17.6,39.5,39.5,39.5Z"/>
  <g>
    <line class="c" x1="30.97255" y1="19.78113" x2="22.2039" y2="19.78113"/>
    <path class="c" d="M30.89355,35.02752c4.26583,0,7.66269-3.39686,7.66269-7.58369,0-4.26583-3.39686-7.66269-7.66269-7.66269"/>
    <line class="c" x1="30.97255" y1="65.59928" x2="21.97308" y2="65.59928"/>
    <path class="c" d="M30.89355,50.3529c4.26583,0,7.66269,3.39686,7.66269,7.66269,0,4.18683-3.39686,7.58369-7.66269,7.58369"/>
    <path class="c" d="M30.89355,35.10651c4.26583,0,7.66269,3.39686,7.66269,7.66269,0,4.18683-3.39686,7.58369-7.66269,7.58369"/>
    <line class="c" x1="56.01454" y1="58.01559" x2="65.7353" y2="58.01559"/>
    <line class="c" x1="56.01454" y1="42.7692" x2="59.2534" y2="42.7692"/>
    <line class="c" x1="56.01454" y1="27.52282" x2="65.65205" y2="27.52282"/>
    <path class="c" d="M56.09353,42.7692c-4.26583,0-7.66269,3.39686-7.66269,7.66269,0,4.18683,3.39686,7.58369,7.66269,7.58369"/>
    <path class="c" d="M56.09353,27.52282c-4.26583,0-7.66269,3.39686-7.66269,7.66269,0,4.18683,3.39686,7.58369,7.66269,7.58369"/>
  </g>
</svg>
