<?xml version="1.0" encoding="UTF-8" standalone="no"?>
<!DOCTYPE svg PUBLIC "-//W3C//DTD SVG 1.1//EN" "http://www.w3.org/Graphics/SVG/1.1/DTD/svg11.dtd">
<svg width="100%" height="100%" viewBox="0 0 50 74" version="1.1" xmlns="http://www.w3.org/2000/svg" xmlns:xlink="http://www.w3.org/1999/xlink" xml:space="preserve" xmlns:serif="http://www.serif.com/" style="fill-rule:evenodd;clip-rule:evenodd;stroke-linecap:round;stroke-linejoin:round;stroke-miterlimit:2;">
    <g transform="matrix(1,0,0,1,1.13106,0)">
        <g id="Layer_1">
            <path d="M22.491,35.259C16.56,35.259 11.744,30.135 11.744,23.823C11.744,17.511 16.56,12.385 22.491,12.385M22.491,58.134C16.56,58.134 11.744,53.009 11.744,46.697C11.744,40.385 16.56,35.259 22.491,35.259M23.205,12.385L35.994,12.385M23.205,58.134L35.994,58.134M23.869,5.672L23.869,68.328" style="fill:white;"/>
            <path d="M22.491,35.259C16.56,35.259 11.744,30.135 11.744,23.823C11.744,17.511 16.56,12.385 22.491,12.385M22.491,58.134C16.56,58.134 11.744,53.009 11.744,46.697C11.744,40.385 16.56,35.259 22.491,35.259M23.205,12.385L35.994,12.385M23.205,58.134L35.994,58.134M23.869,5.672L23.869,68.328" style="fill:none;stroke:white;stroke-width:9px;"/>
            <path d="M22.491,35.259C16.56,35.259 11.744,30.135 11.744,23.823C11.744,17.511 16.56,12.385 22.491,12.385M22.491,58.134C16.56,58.134 11.744,53.009 11.744,46.697C11.744,40.385 16.56,35.259 22.491,35.259M23.205,12.385L35.994,12.385M23.205,58.134L35.994,58.134M23.869,5.672L23.869,68.328" style="fill:none;stroke:rgb(59,59,59);stroke-width:3.51px;stroke-miterlimit:1.5;"/>
        </g>
    </g>
</svg>
