<?xml version="1.0" encoding="UTF-8" standalone="no"?>
<!DOCTYPE svg PUBLIC "-//W3C//DTD SVG 1.1//EN" "http://www.w3.org/Graphics/SVG/1.1/DTD/svg11.dtd">
<svg width="100%" height="100%" viewBox="0 0 60 30" version="1.1" xmlns="http://www.w3.org/2000/svg" xmlns:xlink="http://www.w3.org/1999/xlink" xml:space="preserve" xmlns:serif="http://www.serif.com/" style="fill-rule:evenodd;clip-rule:evenodd;stroke-linecap:round;stroke-linejoin:round;stroke-miterlimit:2;">
    <g id="Layer_1" transform="matrix(3.125,0,0,2.85714,5,5)">
        <g transform="matrix(0.415325,0,0,0.391426,-4.74849,-2.57837)">
            <ellipse cx="34.496" cy="18.456" rx="6.455" ry="7.076" style="fill:white;"/>
        </g>
        <g transform="matrix(0.32,0,0,0.35,-1.6,-1.75)">
            <path d="M7.981,18.274L20.843,18.274L32.421,7.651" style="fill:rgb(235,235,235);fill-opacity:0;fill-rule:nonzero;"/>
            <path d="M7.981,18.274L20.843,18.274L32.421,7.651" style="fill:none;fill-rule:nonzero;stroke:white;stroke-width:10.42px;"/>
            <path d="M7.981,18.274L20.843,18.274L32.421,7.651" style="fill:none;fill-rule:nonzero;stroke:rgb(25,25,25);stroke-width:3.13px;stroke-miterlimit:1.5;"/>
        </g>
        <g transform="matrix(0.310226,0,0,0.35,-1.09155,-1.75)">
            <path d="M35.807,18.274L52.019,18.274" style="fill:none;fill-rule:nonzero;"/>
            <path d="M35.807,18.274L52.019,18.274" style="fill:none;fill-rule:nonzero;stroke:white;stroke-width:10.58px;"/>
            <path d="M35.807,18.274L52.019,18.274" style="fill:none;fill-rule:nonzero;stroke:rgb(25,25,25);stroke-width:3.17px;stroke-miterlimit:1.5;"/>
        </g>
        <g transform="matrix(0.412053,0,0,0.450683,-9.87793,2.05248)">
            <path d="M49.559,2.572L43.913,8.937M43.913,2.572L49.559,8.937" style="fill:none;stroke:rgb(25,25,25);stroke-width:1.55px;stroke-miterlimit:1.5;"/>
        </g>
    </g>
</svg>
