<?xml version="1.0" encoding="UTF-8"?>
<svg id="b" data-name="labels" xmlns="http://www.w3.org/2000/svg" width="35px" height="35px" viewBox="0 0 85.0394 85.0394">
  <defs>
    <style>
      .c {
        fill: none;
      }

      .c, .d {
        stroke: #000;
        stroke-linecap: round;
        stroke-linejoin: round;
        stroke-width: 5px;
      }

      .d {
        fill: #fff;
      }
    </style>
  </defs>
  <path class="d" d="M42.46756,82.10003c21.8,0,39.5-17.6,39.5-39.5,0-21.8-17.7-39.5-39.5-39.5C20.56756,3.10003,2.96756,20.80003,2.96756,42.60003c0,21.9,17.6,39.5,39.5,39.5Z"/>
  <g>
    <path class="c" d="M42.44094,49.79446c9.07575,0,16.55483-7.39505,16.55483-16.55483,0-9.07575-7.47909-16.55483-16.55483-16.55483-9.15978,0-16.63887,7.47909-16.63887,16.55483,0,9.15978,7.47909,16.55483,16.63887,16.55483Z"/>
    <path class="c" d="M48.30277,39.66913c-4.53787-7.85983-14.68172-10.63938-22.61432-6.05949-7.85983,4.53787-10.59736,14.7545-6.05949,22.61432,4.57989,7.9326,14.79651,10.67014,22.65634,6.13227,7.9326-4.57989,10.59736-14.7545,6.01747-22.6871Z"/>
    <path class="c" d="M36.60306,39.6553c-4.53787,7.85983-1.87311,18.03443,6.05949,22.61432,7.85983,4.53787,18.07645,1.80034,22.61432-6.05949,4.57989-7.9326,1.84235-18.14923-6.01747-22.6871-7.9326-4.57989-18.07645-1.80034-22.65634,6.13227Z"/>
  </g>
</svg>
