<?xml version="1.0" encoding="UTF-8" standalone="no"?>
<!DOCTYPE svg PUBLIC "-//W3C//DTD SVG 1.1//EN" "http://www.w3.org/Graphics/SVG/1.1/DTD/svg11.dtd">
<svg width="100%" height="100%" viewBox="0 0 80 100" version="1.1" xmlns="http://www.w3.org/2000/svg" xmlns:xlink="http://www.w3.org/1999/xlink" xml:space="preserve" xmlns:serif="http://www.serif.com/" style="fill-rule:evenodd;clip-rule:evenodd;stroke-linecap:round;stroke-linejoin:round;stroke-miterlimit:2;">
    <path d="M13.381,44.171C13.381,30.002 25.308,18.499 40,18.499C54.692,18.499 66.619,30.002 66.619,44.171C66.619,58.34 54.692,69.843 40,69.843M13.381,44.171L40,44.171L40,7.895M39.7,69.843L39.7,81.724M24.258,81.724L55.742,81.724M29.254,87.538L50.746,87.538M33.839,93.324L46.161,93.324" style="fill:rgb(235,235,235);fill-opacity:0;"/>
    <path d="M13.381,44.171C13.381,30.002 25.308,18.499 40,18.499C54.692,18.499 66.619,30.002 66.619,44.171C66.619,58.34 54.692,69.843 40,69.843M13.381,44.171L40,44.171L40,7.895M39.7,69.843L39.7,81.724M24.258,81.724L55.742,81.724M29.254,87.538L50.746,87.538M33.839,93.324L46.161,93.324" style="fill:none;stroke:white;stroke-width:10.42px;"/>
    <path d="M13.381,44.171C13.381,30.002 25.308,18.499 40,18.499C54.692,18.499 66.619,30.002 66.619,44.171C66.619,58.34 54.692,69.843 40,69.843M13.381,44.171L40,44.171L40,7.895M39.7,69.843L39.7,81.724M24.258,81.724L55.742,81.724M29.254,87.538L50.746,87.538M33.839,93.324L46.161,93.324" style="fill:none;stroke:black;stroke-width:3.13px;stroke-miterlimit:1.5;"/>
</svg>
