<?xml version="1.0" encoding="UTF-8"?>
<!DOCTYPE svg PUBLIC "-//W3C//DTD SVG 1.1//EN" "http://www.w3.org/Graphics/SVG/1.1/DTD/svg11.dtd">
<svg version="1.1" xmlns="http://www.w3.org/2000/svg" xmlns:xlink="http://www.w3.org/1999/xlink" x="0" y="0" width="36" height="30" viewBox="0, 0, 36, 30">
  <g id="Background"/>
  <g id="Layer_1">
    <g>
      <path d="M1.094,21.447 L1.093,8.572 L13.969,8.571 L13.969,21.446 z" fill="#FFFFFF"/>
      <path d="M1.094,21.447 L1.093,8.572 L13.969,8.571 L13.969,21.446 z" fill-opacity="0" stroke="#3B3B3B" stroke-width="2" stroke-linejoin="bevel"/>
    </g>
    <path d="M0.267,8.891 L13.587,21.978 L14.517,21.064 L1.197,7.978 z" fill="#3B3B3B"/>
    <path d="M13.595,7.978 L0.392,21.064 L1.313,21.978 L14.517,8.891 z" fill="#3B3B3B"/>
    <g id="power_transformer">
      <g>
        <path d="M26.741,28.776 C21.871,28.776 17.923,24.829 17.923,19.959 C17.923,15.089 21.871,11.141 26.741,11.141 C31.611,11.141 35.559,15.089 35.559,19.959 C35.559,24.829 31.611,28.776 26.741,28.776 z" fill="#FFFFFF"/>
        <path d="M26.741,28.776 C21.871,28.776 17.923,24.829 17.923,19.959 C17.923,15.089 21.871,11.141 26.741,11.141 C31.611,11.141 35.559,15.089 35.559,19.959 C35.559,24.829 31.611,28.776 26.741,28.776 z" fill-opacity="0" stroke="#3B3B3B" stroke-width="1"/>
      </g>
      <g>
        <path d="M26.741,18.877 C21.871,18.877 17.923,14.929 17.923,10.06 C17.923,5.19 21.871,1.242 26.741,1.242 C31.611,1.242 35.559,5.19 35.559,10.06 C35.559,14.929 31.611,18.877 26.741,18.877 z" fill="#FFFFFF"/>
        <path d="M26.741,18.877 C21.871,18.877 17.923,14.929 17.923,10.06 C17.923,5.19 21.871,1.242 26.741,1.242 C31.611,1.242 35.559,5.19 35.559,10.06 C35.559,14.929 31.611,18.877 26.741,18.877 z" fill-opacity="0" stroke="#3B3B3B" stroke-width="1"/>
      </g>
      <path d="M30.285,2.407" fill-opacity="0" stroke="#3B3B3B" stroke-width="1"/>
      <path d="M26.741,28.776 C21.871,28.776 17.923,24.829 17.923,19.959 C17.923,15.089 21.871,11.141 26.741,11.141 C31.611,11.141 35.559,15.089 35.559,19.959 C35.559,24.829 31.611,28.776 26.741,28.776 z" fill-opacity="0" stroke="#3B3B3B" stroke-width="1"/>
    </g>
  </g>
</svg>
