<?xml version="1.0" encoding="UTF-8"?>
<!DOCTYPE svg PUBLIC "-//W3C//DTD SVG 1.1//EN" "http://www.w3.org/Graphics/SVG/1.1/DTD/svg11.dtd">
<svg version="1.1" xmlns="http://www.w3.org/2000/svg" xmlns:xlink="http://www.w3.org/1999/xlink" x="0" y="0" width="31" height="30" viewBox="0, 0, 31, 30">
  <g id="Layer_1">
    <path d="M5.641,19.469 C3.173,19.469 1.172,17.468 1.172,15 C1.172,12.532 3.173,10.531 5.641,10.531 C8.109,10.531 10.11,12.532 10.11,15 C10.11,17.468 8.109,19.469 5.641,19.469 z" fill="#775211"/>
    <path d="M5.641,19.469 C3.173,19.469 1.172,17.468 1.172,15 C1.172,12.532 3.173,10.531 5.641,10.531 C8.109,10.531 10.11,12.532 10.11,15 C10.11,17.468 8.109,19.469 5.641,19.469 z" fill-opacity="0" stroke="#000000" stroke-width="1"/>
    <g id="power_transformer">
      <g>
        <path d="M20.918,28.875 C16.01,28.875 12.032,24.897 12.032,19.989 C12.032,15.08 16.01,11.102 20.918,11.102 C25.826,11.102 29.805,15.08 29.805,19.989 C29.805,24.897 25.826,28.875 20.918,28.875 z" fill="#FFFFFF"/>
        <path d="M20.918,28.875 C16.01,28.875 12.032,24.897 12.032,19.989 C12.032,15.08 16.01,11.102 20.918,11.102 C25.826,11.102 29.805,15.08 29.805,19.989 C29.805,24.897 25.826,28.875 20.918,28.875 z" fill-opacity="0" stroke="#3B3B3B" stroke-width="1"/>
      </g>
      <g>
        <path d="M20.918,18.898 C16.01,18.898 12.032,14.92 12.032,10.013 C12.032,5.105 16.01,1.125 20.918,1.125 C25.826,1.125 29.805,5.105 29.805,10.013 C29.805,14.92 25.826,18.898 20.918,18.898 z" fill="#FFFFFF"/>
        <path d="M20.918,18.898 C16.01,18.898 12.032,14.92 12.032,10.013 C12.032,5.105 16.01,1.125 20.918,1.125 C25.826,1.125 29.805,5.105 29.805,10.013 C29.805,14.92 25.826,18.898 20.918,18.898 z" fill-opacity="0" stroke="#3B3B3B" stroke-width="1"/>
      </g>
      <path d="M24.49,2.3" fill-opacity="0" stroke="#3B3B3B" stroke-width="1"/>
      <path d="M20.918,28.875 C16.01,28.875 12.032,24.897 12.032,19.989 C12.032,15.08 16.01,11.102 20.918,11.102 C25.826,11.102 29.805,15.08 29.805,19.989 C29.805,24.897 25.826,28.875 20.918,28.875 z" fill-opacity="0" stroke="#3B3B3B" stroke-width="1"/>
    </g>
  </g>
</svg>
