<?xml version="1.0" encoding="UTF-8"?>
<svg id="a" data-name="Layer 1" xmlns="http://www.w3.org/2000/svg" width="35px" height="35px" viewBox="0 0 85.0394 85.0394">
  <defs>
    <style>
      .c {
        fill: none;
      }

      .c, .d {
        stroke: #000;
        stroke-linecap: round;
        stroke-linejoin: round;
        stroke-width: 5px;
      }

      .d {
        fill: #fff;
      }
    </style>
  </defs>
  <g>
    <path class="d" d="M35.20198,81.23478c21.43084,3.99489,42.05634-10.06351,46.06956-31.59265,3.99489-21.43084-10.16181-42.07467-31.59265-46.06956C28.14974-.44065,7.60422,13.73438,3.60933,35.16522c-4.01322,21.52914,10.06351,42.05634,31.59265,46.06956Z"/>
    <line class="c" x1="42.44043" y1="42.40367" x2="16.96274" y2="59.87525"/>
  </g>
  <path d="M42.61853,19.35367c1.4,0,2.5-1.1,2.5-2.5s-1.1-2.5-2.5-2.5-2.5,1.1-2.5,2.5,1.1,2.5,2.5,2.5Z"/>
  <path d="M42.61853,31.85367c1.4,0,2.5-1.1,2.5-2.5s-1.1-2.5-2.5-2.5-2.5,1.1-2.5,2.5,1.1,2.5,2.5,2.5Z"/>
  <path d="M42.61853,57.35367c1.4,0,2.5-1.1,2.5-2.5s-1.1-2.5-2.5-2.5-2.5,1.1-2.5,2.5,1.1,2.5,2.5,2.5Z"/>
  <path d="M42.61853,70.35367c1.4,0,2.5-1.1,2.5-2.5s-1.1-2.5-2.5-2.5-2.5,1.1-2.5,2.5,1.1,2.5,2.5,2.5Z"/>
  <path d="M52.00845,26.20367c1.4,0,2.5-1.1,2.5-2.5s-1.1-2.5-2.5-2.5-2.5,1.1-2.5,2.5,1.1,2.5,2.5,2.5Z"/>
  <path d="M52.00845,38.70367c1.4,0,2.5-1.1,2.5-2.5s-1.1-2.5-2.5-2.5-2.5,1.1-2.5,2.5,1.1,2.5,2.5,2.5Z"/>
  <path d="M52.00845,51.70367c1.4,0,2.5-1.1,2.5-2.5s-1.1-2.5-2.5-2.5-2.5,1.1-2.5,2.5,1.1,2.5,2.5,2.5Z"/>
  <path d="M52.00845,64.20367c1.4,0,2.5-1.1,2.5-2.5s-1.1-2.5-2.5-2.5-2.5,1.1-2.5,2.5,1.1,2.5,2.5,2.5Z"/>
  <path d="M61.39836,19.35367c-1.4,0-2.5-1.1-2.5-2.5,0-1.4,1.1-2.5,2.5-2.5s2.5,1.1,2.5,2.5c0,1.4-1.1,2.5-2.5,2.5Z"/>
  <path d="M61.39836,31.85367c-1.4,0-2.5-1.1-2.5-2.5,0-1.4,1.1-2.5,2.5-2.5s2.5,1.1,2.5,2.5c0,1.4-1.1,2.5-2.5,2.5Z"/>
  <path d="M61.39836,44.85367c-1.4,0-2.5-1.1-2.5-2.5,0-1.4,1.1-2.5,2.5-2.5s2.5,1.1,2.5,2.5-1.1,2.5-2.5,2.5Z"/>
  <path d="M61.39836,57.35367c-1.4,0-2.5-1.1-2.5-2.5,0-1.4,1.1-2.5,2.5-2.5s2.5,1.1,2.5,2.5c0,1.4-1.1,2.5-2.5,2.5Z"/>
  <path d="M61.39836,70.35367c-1.4,0-2.5-1.1-2.5-2.5,0-1.4,1.1-2.5,2.5-2.5s2.5,1.1,2.5,2.5c0,1.4-1.1,2.5-2.5,2.5Z"/>
  <path d="M70.78828,38.70367c-1.4,0-2.5-1.1-2.5-2.5,0-1.4,1.1-2.5,2.5-2.5s2.5,1.1,2.5,2.5c0,1.4-1.1,2.5-2.5,2.5Z"/>
  <path d="M70.78828,51.70367c-1.4,0-2.5-1.1-2.5-2.5,0-1.4,1.1-2.5,2.5-2.5s2.5,1.1,2.5,2.5c0,1.4-1.1,2.5-2.5,2.5Z"/>
  <path d="M33.22861,26.20367c-1.4,0-2.5-1.1-2.5-2.5,0-1.4,1.1-2.5,2.5-2.5s2.5,1.1,2.5,2.5c0,1.4-1.1,2.5-2.5,2.5Z"/>
  <path d="M33.22861,38.70367c-1.4,0-2.5-1.1-2.5-2.5,0-1.4,1.1-2.5,2.5-2.5s2.5,1.1,2.5,2.5c0,1.4-1.1,2.5-2.5,2.5Z"/>
  <path d="M33.22861,64.20367c-1.4,0-2.5-1.1-2.5-2.5,0-1.4,1.1-2.5,2.5-2.5s2.5,1.1,2.5,2.5c0,1.4-1.1,2.5-2.5,2.5Z"/>
  <path d="M23.83869,19.35367c1.4,0,2.5-1.1,2.5-2.5s-1.1-2.5-2.5-2.5-2.5,1.1-2.5,2.5,1.1,2.5,2.5,2.5Z"/>
  <path d="M23.83869,31.85367c1.4,0,2.5-1.1,2.5-2.5s-1.1-2.5-2.5-2.5-2.5,1.1-2.5,2.5,1.1,2.5,2.5,2.5Z"/>
  <path d="M23.83869,44.85367c1.4,0,2.5-1.1,2.5-2.5s-1.1-2.5-2.5-2.5-2.5,1.1-2.5,2.5,1.1,2.5,2.5,2.5Z"/>
  <path d="M23.83869,70.35367c1.4,0,2.5-1.1,2.5-2.5s-1.1-2.5-2.5-2.5-2.5,1.1-2.5,2.5,1.1,2.5,2.5,2.5Z"/>
  <path d="M14.44878,38.70367c1.4,0,2.5-1.1,2.5-2.5s-1.1-2.5-2.5-2.5-2.5,1.1-2.5,2.5,1.1,2.5,2.5,2.5Z"/>
  <path d="M14.44878,51.70367c1.4,0,2.5-1.1,2.5-2.5s-1.1-2.5-2.5-2.5-2.5,1.1-2.5,2.5,1.1,2.5,2.5,2.5Z"/>
</svg>