<?xml version="1.0" encoding="UTF-8" standalone="no"?>
<!DOCTYPE svg PUBLIC "-//W3C//DTD SVG 1.1//EN" "http://www.w3.org/Graphics/SVG/1.1/DTD/svg11.dtd">
<svg width="100%" height="100%" viewBox="0 0 100 100" version="1.1" xmlns="http://www.w3.org/2000/svg" xmlns:xlink="http://www.w3.org/1999/xlink" xml:space="preserve" xmlns:serif="http://www.serif.com/" style="fill-rule:evenodd;clip-rule:evenodd;stroke-linecap:round;stroke-linejoin:round;stroke-miterlimit:1.5;">
    <g transform="matrix(1,0,0,1,0.94368,0.0504566)">
        <path d="M96.149,25.668C96.149,12.673 85.598,2.122 72.602,2.122L25.51,2.122C12.515,2.122 1.964,12.673 1.964,25.668L1.964,74.231C1.964,87.226 12.515,97.777 25.51,97.777L72.602,97.777C85.598,97.777 96.149,87.226 96.149,74.231L96.149,25.668Z" style="fill:rgb(237,231,239);stroke:black;stroke-width:2.5px;"/>
    </g>
    <g id="path6910" transform="matrix(0.135307,0,0,0.135307,-0.0428584,0.658894)">
        <path d="M159.966,140.09C139.076,160.664 86.264,264.455 238.869,461.963C399.711,670.098 522.112,643.719 544.813,624.965L436.909,488.884C417.904,503.954 397.635,486.273 359.421,447.016C334.192,420.961 305.631,386.823 281.75,349.063C265.149,322.599 250.73,295.244 270.652,279.447L159.955,140.08L159.966,140.09Z" style="fill-rule:nonzero;"/>
    </g>
    <g id="path6912" transform="matrix(0.135307,0,0,0.135307,-0.0428584,0.658894)">
        <path d="M598.404,580.125C607.272,573.082 607.828,560.978 601.422,552.911L601.446,552.706C601.446,552.706 517.225,446.891 517.138,446.781C510.459,438.371 498.426,437.198 490.13,443.786L451.568,474.411L559.841,610.747C559.841,610.747 598.379,580.328 598.288,580.214L598.403,580.123L598.404,580.125Z" style="fill-rule:nonzero;"/>
    </g>
    <g id="path6914" transform="matrix(0.135307,0,0,0.135307,-0.0428584,0.658894)">
        <path d="M325.902,234.984C334.731,227.891 335.219,215.784 328.767,207.753L328.881,207.662C328.881,207.662 241.558,99.194 241.464,99.078C234.737,90.705 222.698,89.599 214.438,96.234L176.049,127.074L287.515,265.827L325.882,235.192L325.904,234.987L325.902,234.984Z" style="fill-rule:nonzero;"/>
    </g>
</svg>
